# xmcd CD database file
#
# Track frame offsets:
#	150
#	34787
#	59592
#	91930
#	114330
#	131767
#	153650
#	179032
#	201930
#	217365
#	240000
#	272377
#
# Disc length: 3900 seconds
#
# Revision: 2
# Processed by: cddbd v1.4b41PL1 Copyright (c) Steve Scherf et al.
# Submitted via: Feurio! 1.50.2ß - http://www.feurio.com
#
DISCID=ae0f3a0c
DTITLE=Atlanta Rhythm Section - Southern Fried
DYEAR=1900
DGENRE=
TTITLE0=So Into You
TTITLE1=Imaginary Lover
TTITLE2=Angel (What In The World's Come Over Us)
TTITLE3=Spooky
TTITLE4=Doraville
TTITLE5=Cocaine Charlie
TTITLE6=Georgia Rhythm
TTITLE7=I'm Not Going To Let It Bother Me Tonight
TTITLE8=Do It Or Die
TTITLE9=Champagne Jam
TTITLE10=I Hate The Blues - Let's Get Stoned
TTITLE11=The Ballad Of Lois Malone
EXTD=
EXTT0=
EXTT1=
EXTT2=
EXTT3=
EXTT4=
EXTT5=
EXTT6=
EXTT7=
EXTT8=
EXTT9=
EXTT10=
EXTT11=
PLAYORDER=
